# xmcd
#
# Track frame offsets:
#	150
#	22722
#	41562
#	70416
#	96548
#	115481
#	139064
#	167657
#	189144
#	208044
#	227377
#	244388
#	257347
#	277130
#
# Disc length: 3834 seconds
#
# Revision: 1
# Processed by: cddbd v1.5.1PL0 Copyright (c) Steve Scherf et al.
# Submitted via: audiograbber 1.83.01
#
DISCID=c30ef80e
DTITLE=The Michael Barclay Blues Band - Soul Patch
DYEAR=2001
DGENRE=Blues
TTITLE0=I Refuse
TTITLE1=Redheaded Woman
TTITLE2=Dark Night
TTITLE3=Louise
TTITLE4=Honeymoon
TTITLE5=Gimme a Break
TTITLE6=Time Will Tell
TTITLE7=Fine Fine Fine
TTITLE8=Don't Toy with Me
TTITLE9=You Haunt Me
TTITLE10=Back to New York City
TTITLE11=Drivin' 95 Blues
TTITLE12=That Ain't Love
TTITLE13=Soul Patch
EXTD=
EXTT0=
EXTT1=
EXTT2=
EXTT3=
EXTT4=
EXTT5=
EXTT6=
EXTT7=
EXTT8=
EXTT9=
EXTT10=
EXTT11=
EXTT12=
EXTT13=
PLAYORDER=
